<?xml version="1.0" encoding="utf-8"?>
<!-- Generator: Adobe Illustrator 22.0.0, SVG Export Plug-In . SVG Version: 6.00 Build 0)  -->
<svg version="1.1" id="Layer_1" xmlns="http://www.w3.org/2000/svg" xmlns:xlink="http://www.w3.org/1999/xlink" x="0px" y="0px"
	 viewBox="0 0 600 600" style="enable-background:new 0 0 600 600;" xml:space="preserve">
<style type="text/css">
	.st0{fill:#221F1F;}
	.st1{fill:#FFFFFF;}
	.st2{fill:none;stroke:#221F1F;stroke-width:0.5;stroke-miterlimit:10;}
	.st3{opacity:0.32;fill:#221F1F;}
	.st4{fill:#C0902D;stroke:#C0902D;stroke-miterlimit:10;}
	.st5{fill:#FBCA0A;}
	.st6{fill:#FACB34;}
</style>
<g>
	<g id="XMLID_46031_">
		<path id="XMLID_46038_" class="st0" d="M348.6,494.1l-12.2-26.9h-73.3l-12.2,26.9H77.8l140.3-247.3h163.4l140.3,247.3H348.6z
			 M308.6,402.4L300,381l-8.9,21.4H308.6z"/>
		<path id="XMLID_46035_" class="st1" d="M352.3,488.3l-12.2-26.9h-80.7l-12.2,26.9H87.8l133.7-235.7h156.6l133.7,235.7H352.3z
			 M317.2,408.2l-17.1-42.6l-17.7,42.6H317.2z"/>
		<path id="XMLID_46032_" class="st2" d="M501.2,481.5L374.7,258.5H224.9l-127.1,224h145.6l12.2-26.9h88.2l12.2,26.9h145.6
			L501.2,481.5z M273.7,414l26.5-63.7l25.6,63.5l0.1,0.2H273.7z"/>
	</g>
	<path id="XMLID_46005_" class="st3" d="M501.2,481.5h-9.7v-17.1l-3.1-5.5h-28.6v-20H477l-1.5-2.6h-47.7v-20h36.4l-1.5-2.6h-3v-5.2
		l-2.1-3.6v8.8h-61.6v-20h55.2l-1.5-2.6h-22.1v-20h10.7l-1.5-2.6h-41v-20h29.6l-1.5-2.6h-60.1v-20H413l-1.5-2.6h-15.4v-20h4
		l-1.6-2.9h-34.3v-20h23l-1.5-2.6h-53.2v-19.6h-2.1V278H269v-19.6h-1.8V278h-53.4l-1.5,2.6h23v20h-34.3l-1.6,2.9h4.3v20h-15.6
		l-1.5,2.6h48.8v20h-60.1l-1.5,2.6h29.9v20h-41.2l-1.5,2.6h10.7v20h-22.1l-1.5,2.6h55.5v20H142v-9.3l-2.1,3.6v5.7h-3.2l-1.5,2.6
		h36.4v20h-47.7l-1.5,2.6H140v20h-28.8l-3.1,5.5v17.1h-9.7l-0.6,1h145.6l0.4-1h-6.6v-20h15.6l1.2-2.6h-48.5v-20h61.6v16.6h1.8v-16.6
		h61.6v16.6h2.1v-16.6h61.6v20h-48.7l1.2,2.6h15.6v20h-6.6l0.4,1h145.6L501.2,481.5z M457.8,438.9v20h-61.6v-20H457.8z M425.8,371.2
		v20h-61.6v-20H425.8z M317.7,393.8h12.8v20h-4.8l0.1,0.2h-52.1l0.1-0.2H269v-20h13.1l1.1-2.6h-45.9v-20h54.2l1.1-2.6H269v-20h61.6
		v20h-23l1,2.6h53.6v20h-45.5L317.7,393.8z M267.2,393.8v20h-61.6v-20H267.2z M330.5,323.5H269v-20h61.6V323.5z M362.2,326.1v20
		h-61.6v-20H362.2z M298.9,326.1v20h-61.6v-20H298.9z M332.6,393.8h61.6v20h-61.6V393.8z M394.1,348.6v20h-61.6v-20H394.1z
		 M394.1,303.5v20h-61.6v-20H394.1z M300.6,280.6h61.6v20h-61.6V280.6z M237.3,280.6h61.6v20h-61.6V280.6z M205.6,323.5v-20h61.6v20
		H205.6z M205.6,348.6h61.6v20h-61.6V348.6z M173.7,391.2v-20h61.6v20H173.7z M142,438.9h61.6v20H142V438.9z M171.6,481.5h-61.6v-20
		h61.6V481.5z M235.2,461.5v20h-61.6v-20H235.2z M235.2,436.4h-61.6v-20h61.6V436.4z M298.9,436.4h-61.6v-20h61.6V436.4z
		 M362.2,436.4h-61.6v-20h61.6V436.4z M364.3,436.4v-20h61.6v20H364.3z M425.8,481.5h-61.6v-20h61.6V481.5z M489.4,481.5h-61.6v-20
		h61.6V481.5z"/>
	<polygon id="XMLID_46004_" class="st0" points="225.6,231.5 299.7,97.5 373.9,231.5 	"/>
	<polygon id="XMLID_46003_" class="st1" points="235.3,225.7 299.7,109.3 364.2,225.7 	"/>
	<polygon id="XMLID_46002_" class="st4" points="299.7,121.2 245,220 354.5,220 	"/>
	<path id="XMLID_46069_" class="st0" d="M362.3,170.3c-1.1-1.4-27.4-33.5-62.5-33.5s-61.4,32.2-62.5,33.5l-8.1,10.1l8.1,10.1
		c1.1,1.4,27.4,33.5,62.5,33.5c35.2,0,61.4-32.2,62.5-33.5l8.2-10.1L362.3,170.3z M357.7,187.3c-1,1.3-25.6,31.4-57.9,31.4
		s-56.9-30.1-57.9-31.4l-5.5-6.9l5.5-6.9c1-1.3,25.6-31.4,57.9-31.4s56.9,30.1,57.9,31.4l5.5,6.9L357.7,187.3z"/>
	<path id="XMLID_46066_" class="st1" d="M357.7,173.5c-1-1.3-25.6-31.4-57.9-31.4s-56.9,30.1-57.9,31.4l-5.5,6.9l5.5,6.9
		c1,1.3,25.6,31.4,57.9,31.4s56.9-30.1,57.9-31.4l5.5-6.9L357.7,173.5z M353.1,184c-1,1.2-23.9,29.3-53.4,29.3
		c-29.4,0-52.4-28.1-53.4-29.3l-2.9-3.6l2.9-3.6c1-1.2,23.9-29.3,53.4-29.3c29.4,0,52.4,28.1,53.4,29.3l2.9,3.6L353.1,184z"/>
	<path id="XMLID_46060_" class="st1" d="M299.7,153.4c-27.6,0-50,27-50,27s22.4,27,50,27c27.6,0,50-27,50-27
		S327.4,153.4,299.7,153.4z M299.7,206.4c-15.1,0-27.3-11.6-27.3-25.9c0-14.3,12.2-25.9,27.3-25.9c15.1,0,27.3,11.6,27.3,25.9
		C327,194.7,314.8,206.4,299.7,206.4z"/>
	<ellipse id="XMLID_46056_" class="st0" cx="299.7" cy="180.4" rx="7.9" ry="7.8"/>
	<path id="XMLID_46054_" class="st5" d="M299.7,151.6c20.4,0,37.7,13.3,48,23.5c-13.9-5.3-30.2-9.2-48-9.2c-17.8,0-34.1,3.9-48,9.2
		C262,164.9,279.3,151.6,299.7,151.6z"/>
	<path id="XMLID_41_" class="st5" d="M251.8,188.2c13.9,5.3,30.2,9.2,48,9.2c17.8,0,34.1-3.9,48-9.2c-10.3,10.2-27.6,23.5-48,23.5
		S262,198.4,251.8,188.2z"/>
	<path id="XMLID_120_" class="st6" d="M299.8,147.5c-29.7,0-52.8,28.4-53.8,29.6l-2.9,3.7l2.9,3.7c1,1.2,24.1,29.6,53.8,29.6
		c29.7,0,52.8-28.4,53.8-29.6l2.9-3.7l-2.9-3.7C352.5,176,329.4,147.5,299.8,147.5z M299.7,208.2c-27.1,0-49-27.4-49-27.4
		s22-27.4,49-27.4s49,27.4,49,27.4S326.8,208.2,299.7,208.2z"/>
</g>
</svg>
